<?xml version="1.0" standalone="no"?>
<!DOCTYPE svg PUBLIC "-//W3C//DTD SVG 20010904//EN"
 "http://www.w3.org/TR/2001/REC-SVG-20010904/DTD/svg10.dtd">
<svg version="1.0" xmlns="http://www.w3.org/2000/svg"
 width="260.000000pt" height="260.000000pt" viewBox="0 0 260.000000 260.000000"
 preserveAspectRatio="xMidYMid meet">
<metadata>
Created by potrace 1.11, written by Peter Selinger 2001-2013
</metadata>
<g transform="translate(0.000000,260.000000) scale(0.100000,-0.100000)"
fill="#000000" stroke="none">
<path d="M0 1300 l0 -1300 1300 0 1300 0 0 1300 0 1300 -1300 0 -1300 0 0
-1300z m1975 538 c75 -24 138 -64 191 -120 42 -43 94 -116 94 -130 0 -5 -28
-8 -62 -8 -62 1 -64 2 -90 40 -65 93 -166 135 -313 128 -79 -3 -102 -8 -157
-36 -149 -73 -227 -239 -200 -423 21 -140 93 -242 211 -298 49 -23 68 -26 161
-26 94 0 111 3 162 28 105 51 173 139 185 238 l6 49 -182 0 -181 0 0 55 0 55
235 0 235 0 0 -265 0 -265 -55 0 -55 0 0 80 0 79 -50 -50 c-30 -30 -78 -63
-118 -82 -58 -27 -80 -32 -168 -35 -162 -6 -269 34 -368 138 -95 99 -136 210
-136 365 0 160 41 266 145 371 103 104 221 148 370 138 44 -3 107 -15 140 -26z
m-989 -3 c71 -22 134 -73 168 -136 24 -44 31 -69 34 -137 8 -139 -42 -224
-160 -277 -35 -15 -64 -29 -66 -30 -2 -2 43 -74 100 -161 57 -88 114 -176 127
-196 l23 -38 -69 0 -68 1 -118 189 -119 190 -169 0 -169 0 0 -190 0 -190 -60
0 -60 0 0 495 0 495 278 0 c219 0 289 -3 328 -15z"/>
<path d="M500 1544 l0 -195 218 3 c210 3 218 4 262 28 53 30 87 77 95 134 13
87 -29 167 -108 205 -40 19 -61 21 -255 21 l-212 0 0 -196z"/>
</g>
</svg>
