<svg id="Layer_1" data-name="Layer 1" xmlns="http://www.w3.org/2000/svg" viewBox="0 0 304 210.8"><defs><style>.cls-1{fill:#b3b3b3;}.cls-2{fill:#ccc;}.cls-3{fill:#0071bc;}.cls-4{fill:#999;}.cls-10,.cls-12,.cls-5{fill:#fff;}.cls-5{opacity:0.6;}.cls-6{fill:#e6e6e6;}.cls-7{fill:#e22342;}.cls-8{fill:#e2e213;}.cls-9{fill:#24e050;}.cls-11{fill:#1a1a1a;}.cls-12{opacity:0.24;}.cls-13{fill:#d1c9d3;}</style></defs><title>computer</title><rect class="cls-1" x="129" y="112.47" width="50" height="80"/><rect class="cls-1" width="300" height="150" rx="12" ry="12"/><rect class="cls-2" x="4" y="2" width="300" height="150" rx="12" ry="12"/><rect class="cls-3" x="14" y="12" width="280" height="130"/><polygon class="cls-4" points="191.6 207.47 120.61 207.47 129 192.47 179 192.47 191.6 207.47"/><path class="cls-1" d="M494.85,295.06h-69a1,1,0,0,1-1-1v-2.33h71v2.33A1,1,0,0,1,494.85,295.06Z" transform="translate(-304.26 -84.26)"/><polygon class="cls-4" points="179 155 129 157 129 152 179 152 179 155"/><rect class="cls-5" x="101.65" y="130.74" width="104.7" height="11.26" rx="3" ry="3"/><rect class="cls-6" x="14" y="12.01" width="280" height="5"/><path class="cls-6" d="M19.71,27.61h98a1,1,0,0,1,1,1v4a0,0,0,0,1,0,0h-100a0,0,0,0,1,0,0v-4A1,1,0,0,1,19.71,27.61Z"/><circle class="cls-7" cx="21.61" cy="30.11" r="1"/><circle class="cls-8" cx="24.61" cy="30.11" r="1"/><circle class="cls-9" cx="27.61" cy="30.11" r="1"/><path class="cls-6" d="M153.71,32.61h128a1,1,0,0,1,1,1v4a0,0,0,0,1,0,0h-130a0,0,0,0,1,0,0v-4A1,1,0,0,1,153.71,32.61Z"/><circle class="cls-7" cx="155.61" cy="35.11" r="1"/><circle class="cls-8" cx="158.61" cy="35.11" r="1"/><circle class="cls-9" cx="161.61" cy="35.11" r="1"/><rect class="cls-10" x="18.71" y="32.61" width="100" height="70"/><rect class="cls-11" x="152.71" y="37.61" width="130" height="70"/><rect class="cls-2" x="152.71" y="37.61" width="24.94" height="70"/><polygon class="cls-12" points="294 141.93 14 11.93 294 11.93 294 141.93"/><rect class="cls-6" x="22.39" y="38.93" width="50" height="3"/><rect class="cls-6" x="22.39" y="43.93" width="60" height="3"/><rect class="cls-6" x="22.39" y="48.93" width="45" height="3"/><rect class="cls-6" x="22.39" y="53.93" width="42" height="3"/><rect class="cls-6" x="22.39" y="58.93" width="57" height="3"/><rect class="cls-6" x="22.39" y="63.93" width="35" height="3"/><rect class="cls-6" x="22.39" y="68.93" width="60" height="3"/><rect class="cls-6" x="22.39" y="73.93" width="40" height="3"/><rect class="cls-6" x="22.39" y="78.93" width="50" height="3"/><rect class="cls-6" x="22.39" y="83.93" width="55" height="3"/><rect class="cls-6" x="22.39" y="88.93" width="30" height="3"/><rect class="cls-13" x="176.91" y="132.37" width="8" height="8" rx="1" ry="1"/><rect class="cls-13" x="166.91" y="132.37" width="8" height="8" rx="1" ry="1"/><rect class="cls-13" x="156.91" y="132.37" width="8" height="8" rx="1" ry="1"/><rect class="cls-13" x="146.91" y="132.37" width="8" height="8" rx="1" ry="1"/><rect class="cls-13" x="136.91" y="132.37" width="8" height="8" rx="1" ry="1"/><rect class="cls-13" x="126.91" y="132.37" width="8" height="8" rx="1" ry="1"/></svg>