<svg id="Layer_1" data-name="Layer 1" xmlns="http://www.w3.org/2000/svg" viewBox="0 0 126 101"><defs><style>.cls-1,.cls-2{fill:#fff;}.cls-1,.cls-3{stroke:#fff;stroke-miterlimit:10;}.cls-3{fill:none;}</style></defs><title>wireframe</title><rect class="cls-1" x="3.87" y="15.5" width="20" height="50"/><rect class="cls-2" x="0.5" y="0.5" width="125" height="5"/><rect class="cls-3" x="39.66" y="15.5" width="45" height="20"/><rect class="cls-2" x="44.66" y="28.5" width="5" height="7"/><rect class="cls-2" x="54.66" y="21.5" width="5" height="14"/><rect class="cls-2" x="64.66" y="24.5" width="5" height="11"/><rect class="cls-2" x="74.66" y="17.5" width="5" height="18"/><path class="cls-2" d="M173.48,94.91h10a10,10,0,1,1-18.66-5Z" transform="translate(-64.42 -69.41)"/><rect class="cls-2" x="39.66" y="39.35" width="30" height="3"/><rect class="cls-3" x="39.66" y="45" width="25" height="1"/><rect class="cls-3" x="39.66" y="51.63" width="80" height="40"/><rect class="cls-1" x="39.66" y="51.63" width="80" height="5"/><line class="cls-3" x1="39.66" y1="61.63" x2="119.66" y2="61.63"/><line class="cls-3" x1="39.66" y1="66.63" x2="119.66" y2="66.63"/><line class="cls-3" x1="39.66" y1="71.63" x2="119.66" y2="71.63"/><line class="cls-3" x1="39.66" y1="76.63" x2="119.66" y2="76.63"/><line class="cls-3" x1="39.66" y1="81.63" x2="119.66" y2="81.63"/><line class="cls-3" x1="39.66" y1="86.63" x2="119.66" y2="86.63"/><rect class="cls-3" x="39.66" y="56.63" width="5" height="35"/><rect class="cls-3" x="73.15" y="56.63" width="17" height="35"/><rect class="cls-3" x="90.15" y="56.63" width="10" height="35"/><rect class="cls-3" x="100.15" y="56.63" width="13" height="35"/><rect class="cls-3" x="0.5" y="0.5" width="125" height="100"/><rect class="cls-3" x="3.87" y="15.5" width="20" height="50"/><rect class="cls-3" x="0.5" y="0.5" width="125" height="5"/><rect class="cls-3" x="39.66" y="15.5" width="45" height="20"/><rect class="cls-3" x="44.66" y="28.5" width="5" height="7"/><rect class="cls-3" x="54.66" y="21.5" width="5" height="14"/><rect class="cls-3" x="64.66" y="24.5" width="5" height="11"/><rect class="cls-3" x="74.66" y="17.5" width="5" height="18"/><path class="cls-3" d="M173.48,94.91h10a10,10,0,1,1-18.66-5Z" transform="translate(-64.42 -69.41)"/><rect class="cls-3" x="39.66" y="39.35" width="30" height="3"/><rect class="cls-3" x="39.66" y="45" width="25" height="1"/><rect class="cls-3" x="39.66" y="51.63" width="80" height="40"/><rect class="cls-3" x="39.66" y="51.63" width="80" height="5"/><line class="cls-3" x1="39.66" y1="61.63" x2="119.66" y2="61.63"/><line class="cls-3" x1="39.66" y1="66.63" x2="119.66" y2="66.63"/><line class="cls-3" x1="39.66" y1="71.63" x2="119.66" y2="71.63"/><line class="cls-3" x1="39.66" y1="76.63" x2="119.66" y2="76.63"/><line class="cls-3" x1="39.66" y1="81.63" x2="119.66" y2="81.63"/><line class="cls-3" x1="39.66" y1="86.63" x2="119.66" y2="86.63"/><rect class="cls-3" x="39.66" y="56.63" width="5" height="35"/><rect class="cls-3" x="73.15" y="56.63" width="17" height="35"/><rect class="cls-3" x="90.15" y="56.63" width="10" height="35"/><rect class="cls-3" x="100.15" y="56.63" width="13" height="35"/></svg>